<svg width="85" height="51" viewBox="0 0 85 51" fill="none" xmlns="http://www.w3.org/2000/svg">
<g clip-path="url(#clip0)">
<path d="M10.4251 0.942847C14.916 0.942847 18.2517 3.23542 18.2517 6.61902C18.2517 9.26313 16.5649 10.5242 15.078 11.1246C17.5186 11.8654 19.7373 13.2807 19.7373 16.3808C19.7373 20.9668 15.6535 22.5279 11.2344 22.5279H0.00646973V0.942847H10.4251ZM6.8848 9.19007H9.41377C10.4124 9.19007 11.228 8.37102 11.228 7.60553C11.228 6.78179 10.4429 5.97002 9.41351 5.97002H6.8848V9.19007ZM6.8848 17.5579H10.0206C11.4514 17.5579 12.3661 16.6601 12.3661 15.5792C12.3661 14.5607 11.3881 13.6699 10.2228 13.6699H6.8848V17.5579ZM15.9886 24.8821C20.4795 24.8821 23.8152 27.1747 23.8152 30.5585C23.8152 33.2024 22.1284 34.4635 20.6415 35.0639C23.0818 35.8049 25.3008 37.2199 25.3008 40.3201C25.3008 44.906 21.2168 46.4672 16.7976 46.4672H5.56994V24.8824L15.9886 24.8821ZM12.4483 33.1293H14.977C15.9757 33.1293 16.7914 32.3103 16.7914 31.5448C16.7914 30.721 16.0061 29.9093 14.977 29.9093H12.448L12.4483 33.1293ZM12.4483 41.4975H15.5838C17.0149 41.4975 17.9293 40.5996 17.9293 39.5185C17.9293 38.5002 16.9513 37.6094 15.7861 37.6094H12.4483V41.4975ZM20.2772 22.5253V0.940247H37.5745V6.15333H27.1354V8.98388H35.612V13.8709H27.1354V17.3328H37.5742V22.5253H20.2772ZM37.9074 19.5804L41.9964 15.6567C42.9845 16.483 44.2541 17.4568 45.857 17.4568C47.2688 17.4568 48.0471 16.6377 48.0471 15.8234C48.0471 13.5001 38.7346 14.5748 38.7346 7.17104C38.7346 3.42705 42.1333 0.323486 47.3284 0.323486C50.7874 0.323486 53.3553 1.63293 54.9812 3.19044L50.9165 7.08653C50.9165 7.08653 49.7432 6.0098 48.1197 6.0098C47.1776 6.0098 46.259 6.47627 46.259 7.35565C46.259 9.63184 55.7076 8.50675 55.7076 15.8176C55.7076 20.3477 51.8131 23.1431 46.9446 23.1431C42.1974 23.1431 39.554 21.1948 37.9077 19.5806L37.9074 19.5804ZM61.0011 22.5253V6.13305H55.3364V0.940507H73.5437V6.13305H67.8792V22.5253H61.0011ZM25.5372 24.867H32.3954V37.7977C32.3954 39.1108 33.6937 40.3206 35.0473 40.3206C36.3242 40.3206 37.6148 39.228 37.6148 37.7285V24.867H44.4525V37.6406C44.4525 42.7091 40.2719 46.7524 34.8662 46.7524C29.4293 46.7524 25.5372 42.3521 25.5372 37.3645V24.867ZM52.909 46.4521V38.7392L44.8483 24.8673H51.7871L56.348 32.2996L60.9249 24.867H67.8795L59.7873 38.8185V46.4521H52.909Z" fill="#DBDBDB"/>
<path d="M84.9939 36.6804V50.3235H67.8791L63.833 46.2511V40.7531L67.8791 36.6804H84.9939Z" fill="#1C1C1C"/>
<path d="M67.2145 43.4993C67.2145 43.7423 67.1186 43.9754 66.9478 44.1472C66.7771 44.3191 66.5456 44.4156 66.3041 44.4156C66.0627 44.4156 65.8311 44.3191 65.6604 44.1472C65.4897 43.9754 65.3938 43.7423 65.3938 43.4993C65.3938 43.2563 65.4897 43.0232 65.6604 42.8514C65.8311 42.6795 66.0627 42.583 66.3041 42.583C66.5456 42.583 66.7771 42.6795 66.9478 42.8514C67.1186 43.0232 67.2145 43.2563 67.2145 43.4993Z" fill="#DBDBDB"/>
</g>
<defs>
<clipPath id="clip0">
<rect width="85" height="50" fill="white" transform="translate(0 0.323486)"/>
</clipPath>
</defs>
</svg>
