<svg width="171" height="56" viewBox="0 0 171 56" fill="none" xmlns="http://www.w3.org/2000/svg">
<g clip-path="url(#clip0)">
<path d="M137.827 49.5617V22.0617H131.143V49.5617H5.95705V6.12219H10.8197V0.245605H0V55.4379H137.837V49.5617H137.827Z" fill="white"/>
<path d="M131.284 14.7871H137.968V20.3872H131.284V14.7871Z" fill="white"/>
<path d="M39.715 14.7871H46.3992V20.3872H39.715V14.7871Z" fill="white"/>
<path d="M137.827 49.5617V22.0617H131.143V49.5617H5.95705V6.12219H10.8197V0.245605H0V55.4379H137.837V49.5617H137.827Z" fill="white"/>
<path d="M13.782 0.24585V0.248738H13.723V39.9624H16.7486V39.9628H36.8741V33.0406H21.3158V6.12243H164.848V49.5619H140.737V55.4369H170.805V0.24585H13.782Z" fill="white"/>
<path d="M46.2243 22.063V40.1821H39.6251V22.063H46.2243Z" fill="white"/>
<path d="M63.8974 25.9749H76.9938C76.9938 27.321 76.9372 28.5449 76.8242 29.6447C76.7111 30.7444 76.4883 31.7661 76.1511 32.709C75.6803 34.0332 75.0403 35.2052 74.2323 36.2269C73.4243 37.2482 72.4764 38.1003 71.3879 38.7857C70.2989 39.4699 69.1034 39.9923 67.8027 40.3501C66.5004 40.7095 65.1308 40.8898 63.6952 40.8898C61.7198 40.8898 59.9186 40.5634 58.2915 39.9123C56.6644 39.2628 55.2664 38.3479 54.1006 37.1698C52.9332 35.9917 52.025 34.5763 51.3738 32.9273C50.7226 31.2784 50.3979 29.4553 50.3979 27.4564C50.3979 25.4827 50.7165 23.6686 51.3565 22.0197C51.9965 20.3707 52.9052 18.9619 54.0833 17.7945C55.2614 16.6288 56.6813 15.7189 58.3414 15.0677C60.0032 14.4166 61.8544 14.0918 63.8974 14.0918C66.5442 14.0918 68.8678 14.6646 70.8655 15.8084C72.8627 16.954 74.446 18.7267 75.613 21.1271L69.351 23.7206C68.7675 22.3287 68.0095 21.3293 67.0777 20.7239C66.1472 20.1182 65.0867 19.8157 63.8974 19.8157C62.9091 19.8157 62.0116 20.001 61.2036 20.3711C60.3956 20.7413 59.7053 21.2686 59.1342 21.9528C58.5614 22.6387 58.1128 23.4623 57.7864 24.4271C57.4617 25.3919 57.2987 26.4697 57.2987 27.6594C57.2987 28.7372 57.4382 29.735 57.7192 30.6561C58.0002 31.5755 58.4207 32.3727 58.9823 33.0457C59.5423 33.7188 60.2392 34.2412 61.0691 34.6118C61.8989 34.9819 62.8658 35.1672 63.9655 35.1672C64.615 35.1672 65.2443 35.095 65.8497 34.9477C66.4554 34.8032 66.9997 34.5664 67.4829 34.2416C67.9645 33.9169 68.3631 33.4947 68.6784 32.9785C68.992 32.4623 69.2058 31.8346 69.3172 31.0943H63.8978V25.9749H63.8974Z" fill="white"/>
<path d="M87.7666 24.5954H97.2934V14.8003H103.891V40.1834H97.2934V29.7136H87.7666V40.1834H81.1674V14.8003H87.7666V24.5954Z" fill="white"/>
<path d="M118.84 20.3876V40.1834H112.241V20.3876H106.821V14.8003H124.259V20.3876H118.84Z" fill="white"/>
<path d="M154.268 20.3876V40.1834H147.669V20.3876H142.25V14.8003H159.687V20.3876H154.268Z" fill="white"/>
</g>
<defs>
<clipPath id="clip0">
<rect width="170.805" height="55.1922" fill="white" transform="translate(0 0.245605)"/>
</clipPath>
</defs>
</svg>
