<svg width="32" height="32" viewBox="0 0 32 32" fill="none" xmlns="http://www.w3.org/2000/svg">
<path fill-rule="evenodd" clip-rule="evenodd" d="M0 16C0 7.16344 7.16344 0 16 0C24.8366 0 32 7.16344 32 16C32 24.8366 24.8366 32 16 32C7.16344 32 0 24.8366 0 16Z" fill="#ECF1FA"/>
<path fill-rule="evenodd" clip-rule="evenodd" d="M25.025 16C25.025 16.6095 24.963 17.2182 24.8411 17.8115C24.7223 18.3907 24.5462 18.9593 24.3156 19.5029C24.0903 20.0369 23.8109 20.5514 23.4843 21.0313C23.1626 21.5081 22.7921 21.9555 22.385 22.3633C21.977 22.7693 21.5281 23.1389 21.0515 23.4619C20.5701 23.7862 20.0548 24.0653 19.5205 24.2916C18.9761 24.521 18.4061 24.6968 17.8274 24.8154C17.2334 24.9376 16.6225 25 16.0121 25C15.4013 25 14.7904 24.9376 14.1972 24.8154C13.6176 24.6968 13.0477 24.521 12.5037 24.2916C11.9695 24.0653 11.4537 23.7862 10.9722 23.4619C10.4956 23.1389 10.0467 22.7693 9.63966 22.3633C9.23215 21.9555 8.86158 21.5081 8.53944 21.0313C8.21465 20.5514 7.93474 20.0368 7.70855 19.5029C7.47792 18.9593 7.30147 18.3906 7.1822 17.8115C7.06163 17.2182 7 16.6095 7 16C7 15.3901 7.06159 14.7801 7.18223 14.1881C7.3015 13.6089 7.47795 13.0394 7.70859 12.4967C7.93478 11.9623 8.21469 11.4473 8.53947 10.9674C8.86161 10.4902 9.23219 10.0436 9.63969 9.63539C10.0468 9.22932 10.4957 8.86065 10.9723 8.5381C11.4537 8.21244 11.9695 7.93343 12.5038 7.70665C13.0477 7.47677 13.6176 7.30057 14.1972 7.18282C14.7905 7.06154 15.4013 7 16.0121 7C16.6225 7 17.2334 7.06154 17.8275 7.18282C18.4062 7.30061 18.9761 7.47681 19.5205 7.70665C20.0548 7.93339 20.5701 8.21244 21.0515 8.5381C21.5282 8.86065 21.9771 9.22932 22.385 9.63539C22.7921 10.0436 23.1627 10.4902 23.4844 10.9674C23.8109 11.4473 24.0903 11.9624 24.3156 12.4967C24.5462 13.0394 24.7223 13.6089 24.8411 14.1881C24.963 14.7801 25.025 15.3901 25.025 16ZM12.7281 9.04828C10.5818 10.0604 8.9799 12.0353 8.48039 14.4153C8.6833 14.4171 11.8907 14.4575 15.5861 13.4771C14.2539 11.1137 12.8307 9.18499 12.7281 9.04828ZM16.2237 14.6606C12.2608 15.8453 8.45796 15.7601 8.32154 15.7548C8.31932 15.8374 8.31537 15.9174 8.31537 16C8.31537 17.9744 9.06131 19.7744 10.2874 21.1355C10.2848 21.1315 12.391 17.4001 16.5446 16.0589C16.6449 16.0255 16.747 15.9956 16.8482 15.9666C16.655 15.5298 16.4442 15.0921 16.2237 14.6606ZM21.0951 10.2317C19.74 9.0386 17.9608 8.31487 16.0121 8.31487C15.3867 8.31487 14.7798 8.39046 14.1985 8.5302C14.3138 8.68491 15.7595 10.6 17.0758 13.0135C19.9799 11.9263 21.0761 10.2599 21.0951 10.2317ZM17.3729 17.2401C17.3557 17.2458 17.3386 17.2507 17.3218 17.2568C12.7806 18.8377 11.2977 22.0235 11.2816 22.0583C12.5883 23.073 14.2271 23.6852 16.0121 23.6852C17.078 23.6852 18.0933 23.4685 19.017 23.0761C18.903 22.4046 18.4559 20.0509 17.3729 17.2401ZM20.3131 22.3738C22.0413 21.2093 23.2686 19.3601 23.611 17.2181C23.4526 17.1672 21.2993 16.4864 18.815 16.8842C19.8245 19.6545 20.2347 21.9107 20.3131 22.3738ZM17.6682 14.1587C17.8468 14.5252 18.0198 14.8982 18.1795 15.2731C18.2363 15.4076 18.2918 15.5395 18.3459 15.6713C20.9899 15.339 23.5948 15.898 23.7062 15.9209C23.6886 14.0989 23.0359 12.4268 21.956 11.1177C21.9414 11.1383 20.707 12.9194 17.6682 14.1587Z" fill="#202E3D"/>
</svg>
