<svg width="32" height="32" viewBox="0 0 32 32" fill="none" xmlns="http://www.w3.org/2000/svg">
<circle cx="16" cy="16" r="16" fill="#ECF1FA"/>
<path d="M16.0001 6C10.4779 6 6 10.5904 6 16.2532C6 20.7833 8.86533 24.6266 12.8387 25.9824C13.3384 26.0773 13.5219 25.76 13.5219 25.4891C13.5219 25.2446 13.5126 24.437 13.5083 23.5802C10.7263 24.2004 10.1393 22.3705 10.1393 22.3705C9.68437 21.1854 9.02894 20.8702 9.02894 20.8702C8.12163 20.2339 9.09733 20.2469 9.09733 20.2469C10.1015 20.3193 10.6303 21.3035 10.6303 21.3035C11.5222 22.871 12.9697 22.4178 13.5403 22.1559C13.6301 21.4932 13.8892 21.0409 14.1752 20.7848C11.954 20.5256 9.61913 19.6464 9.61913 15.7177C9.61913 14.5982 10.0098 13.6836 10.6495 12.9656C10.5456 12.7073 10.2034 11.6645 10.7463 10.2522C10.7463 10.2522 11.5861 9.97661 13.4971 11.3032C14.2948 11.076 15.1502 10.9621 16.0001 10.9582C16.8499 10.9621 17.7061 11.076 18.5052 11.3032C20.4139 9.97661 21.2525 10.2522 21.2525 10.2522C21.7968 11.6645 21.4544 12.7073 21.3505 12.9656C21.9917 13.6836 22.3797 14.5982 22.3797 15.7177C22.3797 19.6557 20.0403 20.5228 17.8135 20.7767C18.1722 21.0949 18.4918 21.7188 18.4918 22.6754C18.4918 24.0473 18.4802 25.1514 18.4802 25.4891C18.4802 25.762 18.6602 26.0817 19.1671 25.981C23.1383 24.6237 26 20.7818 26 16.2532C26 10.5904 21.5227 6 16.0001 6Z" fill="#202E3D"/>
<path d="M9.81703 20.651C9.79504 20.7014 9.71703 20.7165 9.64595 20.6819C9.57356 20.6488 9.53289 20.58 9.55637 20.5294C9.57785 20.4775 9.65604 20.463 9.72827 20.4978C9.80083 20.5309 9.84215 20.6004 9.81703 20.651Z" fill="#202E3D"/>
<path d="M10.2213 21.1096C10.1737 21.1545 10.0807 21.1336 10.0175 21.0627C9.95223 20.9919 9.94 20.8972 9.98827 20.8517C10.0374 20.8068 10.1276 20.8278 10.1931 20.8986C10.2583 20.9702 10.2711 21.0642 10.2213 21.1096Z" fill="#202E3D"/>
<path d="M10.6149 21.6943C10.5537 21.7375 10.4537 21.697 10.3919 21.6067C10.3307 21.5164 10.3307 21.4081 10.3932 21.3648C10.4552 21.3214 10.5537 21.3604 10.6164 21.45C10.6773 21.5418 10.6773 21.6501 10.6149 21.6943Z" fill="#202E3D"/>
<path d="M11.154 22.2591C11.0993 22.3205 10.9828 22.304 10.8975 22.2203C10.8102 22.1384 10.7859 22.0223 10.8408 21.9609C10.8962 21.8994 11.0134 21.9167 11.0993 21.9997C11.1859 22.0814 11.2124 22.1985 11.154 22.2591Z" fill="#202E3D"/>
<path d="M11.8978 22.5871C11.8737 22.6666 11.7615 22.7028 11.6484 22.669C11.5355 22.6342 11.4616 22.5411 11.4845 22.4607C11.5079 22.3807 11.6207 22.343 11.7345 22.3792C11.8473 22.4138 11.9213 22.5063 11.8978 22.5871Z" fill="#202E3D"/>
<path d="M12.7147 22.648C12.7175 22.7317 12.6216 22.8011 12.503 22.8027C12.3836 22.8053 12.2871 22.7376 12.2858 22.6552C12.2858 22.5707 12.3795 22.5019 12.4988 22.4999C12.6175 22.4975 12.7147 22.5648 12.7147 22.648Z" fill="#202E3D"/>
<path d="M13.4749 22.5164C13.4891 22.5981 13.4066 22.6819 13.2888 22.7043C13.1729 22.7258 13.0656 22.6754 13.0509 22.5944C13.0365 22.5106 13.1205 22.4267 13.2362 22.4051C13.3542 22.3842 13.4598 22.4333 13.4749 22.5164Z" fill="#202E3D"/>
</svg>
